<svg xmlns="http://www.w3.org/2000/svg" width="95.842" height="9.399" viewBox="0 0 95.842 9.399">
  <g id="contact_arrow" transform="translate(-97.079 -2647)">
    <path id="パス_53" data-name="パス 53" d="M7.219.976a1,1,0,0,1,1.562,0l5.919,7.4A1,1,0,0,1,13.919,10H2.081A1,1,0,0,1,1.3,8.375Z" transform="translate(112 2657) rotate(180)" fill="#fafafa"/>
    <path id="パス_54" data-name="パス 54" d="M7.219.976a1,1,0,0,1,1.562,0l5.919,7.4A1,1,0,0,1,13.919,10H2.081A1,1,0,0,1,1.3,8.375Z" transform="translate(153 2657) rotate(180)" fill="#fafafa"/>
    <path id="パス_55" data-name="パス 55" d="M7.219.976a1,1,0,0,1,1.562,0l5.919,7.4A1,1,0,0,1,13.919,10H2.081A1,1,0,0,1,1.3,8.375Z" transform="translate(194 2657) rotate(180)" fill="#fafafa"/>
  </g>
</svg>
