<svg id="h1_jpn" xmlns="http://www.w3.org/2000/svg" width="200.359" height="23.717" viewBox="0 0 200.359 23.717">
  <path id="パス_1" data-name="パス 1" d="M0,38.727H10.087v4.1H0Zm0,6.357H10.087v4.1H0Zm21.733-6.323L14.457,56.822H9.934l7.3-18.061Zm-8.988-3.455a2.208,2.208,0,0,1,3.763-1.56,2.2,2.2,0,0,1-3.119,3.116,2.122,2.122,0,0,1-.644-1.556m5.259,0a2.194,2.194,0,1,1,.641,1.556A2.121,2.121,0,0,1,18,35.306" transform="translate(0 -33.106)" fill="#121212"/>
  <path id="パス_2" data-name="パス 2" d="M17.319,35.837a3.941,3.941,0,0,1,2.811,1.3,7.274,7.274,0,0,1,1.59,2.753,10.409,10.409,0,0,1,.492,3.16,10.722,10.722,0,0,1-.475,3.163,7.1,7.1,0,0,1-1.59,2.753,4,4,0,0,1-2.828,1.3H6.622V46.992h9.87a2.185,2.185,0,0,0,1.529-.719,4.149,4.149,0,0,0,.9-1.5,5.263,5.263,0,0,0,0-3.455,4.178,4.178,0,0,0-.9-1.5,2.2,2.2,0,0,0-1.529-.719H6.622V35.837h10.7ZM6.714,41.309h9.87v3.272H6.714Z" transform="translate(15.83 -26.578)" fill="#121212"/>
  <rect id="長方形_3" data-name="長方形 3" width="18.766" height="4.096" transform="translate(40.472 12.47)" fill="#121212"/>
  <rect id="長方形_4" data-name="長方形 4" width="10.09" height="4.096" transform="translate(61.944 5.621)" fill="#121212"/>
  <rect id="長方形_5" data-name="長方形 5" width="10.09" height="4.096" transform="translate(61.944 11.979)" fill="#121212"/>
  <path id="パス_3" data-name="パス 3" d="M33,34.773,25.723,52.838H21.2l7.306-18.064Z" transform="translate(50.677 -29.12)" fill="#121212"/>
  <path id="パス_4" data-name="パス 4" d="M22.029,35.306a2.188,2.188,0,1,1,.637,1.556,2.118,2.118,0,0,1-.637-1.556" transform="translate(52.659 -33.106)" fill="#121212"/>
  <path id="パス_5" data-name="パス 5" d="M23.579,35.306a2.194,2.194,0,1,1,.641,1.556,2.121,2.121,0,0,1-.641-1.556" transform="translate(56.364 -33.106)" fill="#121212"/>
  <path id="パス_6" data-name="パス 6" d="M25.482,34.764h10.09v4.1H25.482Zm0,6.357h10.09v4.1H25.482Zm21.733-6.327L39.939,52.859H35.419l7.3-18.064Z" transform="translate(60.914 -29.143)" fill="#121212"/>
  <path id="パス_7" data-name="パス 7" d="M33.3,34.764H53.012a1.34,1.34,0,0,1,1.227.58,1.8,1.8,0,0,1-.095,1.468,3.291,3.291,0,0,1-.7,1.01l-7.12,6.693L55.093,52.8H49.072l-5.747-5.5L37.4,52.859H32.018l14.7-14H33.3Z" transform="translate(76.537 -29.143)" fill="#121212"/>
  <path id="パス_8" data-name="パス 8" d="M39.626,34.764H58.392v4.1H39.626Zm0,6.849H58.514v4.1H51.852L49.991,52.8H45.678l1.987-7.089H39.626Z" transform="translate(94.724 -29.143)" fill="#121212"/>
  <path id="パス_9" data-name="パス 9" d="M63.957,52.8H47.483a1.76,1.76,0,0,1-1.377-.58,1.639,1.639,0,0,1-.366-1.468l4.584-15.986h4.4L50.9,47.939c-.122.488.01.743.4.763H61.692a.905.905,0,0,0,1.01-1.041V41.518h4.126v8.561a2.771,2.771,0,0,1-.763,2,2.881,2.881,0,0,1-2.109.719" transform="translate(109.23 -29.143)" fill="#121212"/>
  <path id="パス_10" data-name="パス 10" d="M53.571,38.727H73.286a1.329,1.329,0,0,1,1.224.583,1.788,1.788,0,0,1-.092,1.465,3.37,3.37,0,0,1-.7,1.01l-7.123,6.693,8.771,8.283H69.343l-5.747-5.5-5.93,5.56H52.289l14.7-14H53.571Zm10.3-3.421a2.2,2.2,0,1,1,.644,1.556,2.124,2.124,0,0,1-.644-1.556m5.259,0a2.194,2.194,0,1,1,.641,1.556,2.121,2.121,0,0,1-.641-1.556" transform="translate(124.994 -33.106)" fill="#121212"/>
</svg>
