<svg xmlns="http://www.w3.org/2000/svg" width="52.775" height="45.012" viewBox="0 0 52.775 45.012">
  <g id="logo" transform="translate(-26 -17.988)">
    <path id="パス_11" data-name="パス 11" d="M33.424.993A21.626,21.626,0,0,0,12.7,16.426l3.5.544A18.17,18.17,0,0,1,33.424,4.488h22.9V.993Z" transform="translate(15.868 18.731)" fill="#121212"/>
    <g id="logo-2" data-name="logo">
      <path id="パス_12" data-name="パス 12" d="M33.769,7.534a10.207,10.207,0,0,0,0,20.414h15.45V18.2h-3.5v6.257H33.769a6.711,6.711,0,0,1,0-13.423H57.975V35.882H33.507a18.17,18.17,0,0,1-17.477-13.3l-.839.227s-1.188.21-2.6.437A21.627,21.627,0,0,0,33.507,39.378H61.471V7.534Z" transform="translate(15.786 23.622)" fill="#121212"/>
      <path id="パス_13" data-name="パス 13" d="M14.966,14.965a1.116,1.116,0,1,1-1.115,1.115,1.116,1.116,0,0,1,1.115-1.115m0-2.622A3.738,3.738,0,1,0,18.7,16.08a3.736,3.736,0,0,0-3.737-3.737" transform="translate(14.771 27.218)" fill="#121212"/>
      <path id="パス_14" data-name="パス 14" d="M40.886,2.622a1.116,1.116,0,1,1-1.115,1.115,1.116,1.116,0,0,1,1.115-1.115m0-2.622a3.738,3.738,0,1,0,3.737,3.737A3.736,3.736,0,0,0,40.886,0" transform="translate(34.153 17.988)" fill="#121212"/>
    </g>
  </g>
</svg>
