<svg id="strong_ico_01" xmlns="http://www.w3.org/2000/svg" xmlns:xlink="http://www.w3.org/1999/xlink" width="80.601" height="70" viewBox="0 0 80.601 70">
  <defs>
    <clipPath id="clip-path">
      <rect id="長方形_18" data-name="長方形 18" width="80.601" height="70" fill="none"/>
    </clipPath>
  </defs>
  <g id="グループ_4" data-name="グループ 4" clip-path="url(#clip-path)">
    <path id="パス_18" data-name="パス 18" d="M1.607,64.438c2.888-2.527,13.313-3.829,21.1-2.6,7.273,1.148,14.236,6.579,26.014,6.555,10.767-.023,27.307-9.43,28.849-10.481,3-2.049.932-6.831-3.4-5.387S52.986,58.731,42.76,55.474c9.84,1.833,17.614,1.653,17.689-3.376.048-3.2-5.776-1.739-10.469-3.183s-7.923-5.2-16.249-6.708c-6.723-1.217-13.352.932-20.211,4.181Z" fill="#ecf3f1"/>
    <path id="パス_19" data-name="パス 19" d="M48.638,70c-7.61,0-13.219-2.162-18.171-4.07a41.012,41.012,0,0,0-8.013-2.505c-7.732-1.22-17.506.226-19.788,2.222A1.607,1.607,0,0,1,.549,63.228c2.211-1.934,6.947-2.769,9.573-3.094a48.164,48.164,0,0,1,12.833.116,43.338,43.338,0,0,1,8.668,2.68c4.69,1.808,10,3.855,17.017,3.855h.076c10.189-.021,26.425-9.164,27.946-10.2a1.426,1.426,0,0,0,.564-1.87c-.312-.628-1.145-1.133-2.551-.664-.644.215-12.589,4.143-23.472,4.143a29.818,29.818,0,0,1-8.93-1.188,1.607,1.607,0,0,1,.782-3.111c10.493,1.955,13.93.715,15.045-.2a1.96,1.96,0,0,0,.742-1.623.485.485,0,0,0-.011-.137c-.345-.387-2.41-.536-3.647-.626a25.378,25.378,0,0,1-5.676-.86,27.359,27.359,0,0,1-5.392-2.533,31.415,31.415,0,0,0-10.671-4.129c-6.81-1.233-13.546,1.356-19.237,4.052a1.607,1.607,0,0,1-1.376-2.9c6.152-2.914,13.48-5.705,21.186-4.31A34.169,34.169,0,0,1,45.69,45.115a24.673,24.673,0,0,0,4.763,2.264,22.933,22.933,0,0,0,4.963.726,17.041,17.041,0,0,1,4.071.6,3.412,3.412,0,0,1,2.57,3.417,5.6,5.6,0,0,1-.325,1.831A86.933,86.933,0,0,0,73.659,51c3.151-1.05,5.508.392,6.447,2.287a4.611,4.611,0,0,1-1.633,5.953C76.6,60.514,59.775,69.977,48.722,70h-.084" fill="#121212"/>
    <path id="パス_20" data-name="パス 20" d="M68.623,14.967A13.36,13.36,0,1,0,48.194,26.3l.248,3.246a2.737,2.737,0,0,0,2.729,2.729h8.445a2.526,2.526,0,0,0,2.469-2.729l.247-3.246a13.347,13.347,0,0,0,6.291-11.335" fill="#ecf3f1"/>
    <path id="パス_21" data-name="パス 21" d="M59.616,33.885H51.171a4.341,4.341,0,0,1-4.336-4.269l-.184-2.408a14.967,14.967,0,1,1,17.224,0l-.184,2.407a4.112,4.112,0,0,1-4.075,4.27M55.263,3.215A11.752,11.752,0,0,0,49.046,24.94a1.608,1.608,0,0,1,.751,1.241l.247,3.245c0,.041.005.082.005.122a1.123,1.123,0,0,0,1.122,1.122h8.445c.837,0,.861-1.007.861-1.122,0-.04,0-.081,0-.122l.247-3.245a1.608,1.608,0,0,1,.751-1.241A11.752,11.752,0,0,0,55.263,3.215" fill="#121212"/>
    <path id="パス_22" data-name="パス 22" d="M51.4,16.614a3.874,3.874,0,0,1,7.725,0c0,2.843-3.862,6.721-3.862,6.721S51.4,19.726,51.4,16.614" fill="#5cc6c1"/>
    <path id="パス_23" data-name="パス 23" d="M55.262,42.957a4.281,4.281,0,0,1-4.275-4.195,1.072,1.072,0,0,1,1.05-1.092l6.41-.122a1.064,1.064,0,0,1,.764.3,1.076,1.076,0,0,1,.328.751,4.282,4.282,0,0,1-4.194,4.358h-.083m.062-1.072h0Zm-1.885-2.1a2.133,2.133,0,0,0,3.689-.071Z" fill="#121212"/>
    <path id="パス_24" data-name="パス 24" d="M58.468,36.776h-6.41a1.072,1.072,0,1,1,0-2.143h6.41a1.072,1.072,0,1,1,0,2.143" fill="#121212"/>
  </g>
</svg>
