<svg id="strong_ico_03" xmlns="http://www.w3.org/2000/svg" xmlns:xlink="http://www.w3.org/1999/xlink" width="88.353" height="70" viewBox="0 0 88.353 70">
  <defs>
    <clipPath id="clip-path">
      <rect id="長方形_20" data-name="長方形 20" width="88.353" height="70" fill="none"/>
    </clipPath>
  </defs>
  <g id="グループ_8" data-name="グループ 8" clip-path="url(#clip-path)">
    <path id="パス_37" data-name="パス 37" d="M18.525,46.776l-2.564,5.9-2.565-5.9c-7.607,1.247-11.652,8.33-11.652,21.48H30.177c0-13.15-4.044-20.233-11.652-21.48" fill="#ecf3f1"/>
    <path id="パス_38" data-name="パス 38" d="M30.178,70H1.744A1.744,1.744,0,0,1,0,68.255C0,61.46,1.073,56.063,3.189,52.213a13.374,13.374,0,0,1,9.925-7.158A1.743,1.743,0,0,1,15,46.081l.965,2.219.965-2.219a1.743,1.743,0,0,1,1.882-1.026,13.374,13.374,0,0,1,9.925,7.158c2.116,3.85,3.189,9.247,3.189,16.042A1.744,1.744,0,0,1,30.178,70M3.514,66.511H28.408c-.161-5.369-1.078-9.608-2.732-12.619a9.943,9.943,0,0,0-6.124-5.1l-1.992,4.58a1.744,1.744,0,0,1-3.2,0l-1.991-4.58a9.94,9.94,0,0,0-6.124,5.1C4.591,56.9,3.674,61.142,3.514,66.511" fill="#121212"/>
    <path id="パス_39" data-name="パス 39" d="M23.357,34.423a7.4,7.4,0,1,1-7.4-7.4,7.4,7.4,0,0,1,7.4,7.4" fill="#ecf3f1"/>
    <path id="パス_40" data-name="パス 40" d="M15.961,43.563a9.139,9.139,0,1,1,9.14-9.14,9.15,9.15,0,0,1-9.14,9.14m0-14.791a5.652,5.652,0,1,0,5.651,5.651,5.657,5.657,0,0,0-5.651-5.651" fill="#121212"/>
    <path id="パス_41" data-name="パス 41" d="M74.956,46.776l-2.564,5.9-2.565-5.9c-7.607,1.247-11.652,8.33-11.652,21.48H86.608c0-13.15-4.044-20.233-11.652-21.48" fill="#5cc6c1"/>
    <path id="パス_42" data-name="パス 42" d="M86.609,70H58.175a1.744,1.744,0,0,1-1.744-1.744c0-6.795,1.073-12.192,3.189-16.042a13.374,13.374,0,0,1,9.925-7.158,1.743,1.743,0,0,1,1.882,1.026l.965,2.219.965-2.219a1.743,1.743,0,0,1,1.881-1.026,13.374,13.374,0,0,1,9.926,7.158c2.116,3.85,3.189,9.247,3.189,16.042A1.744,1.744,0,0,1,86.609,70M59.945,66.511H84.839c-.16-5.369-1.078-9.608-2.732-12.619a9.943,9.943,0,0,0-6.124-5.1l-1.992,4.58a1.744,1.744,0,0,1-3.2,0L68.8,48.789a9.94,9.94,0,0,0-6.124,5.1c-1.655,3.011-2.572,7.25-2.732,12.619" fill="#121212"/>
    <path id="パス_43" data-name="パス 43" d="M79.787,34.423a7.4,7.4,0,1,1-7.4-7.4,7.4,7.4,0,0,1,7.4,7.4" fill="#5cc6c1"/>
    <path id="パス_44" data-name="パス 44" d="M72.392,43.563a9.139,9.139,0,1,1,9.14-9.14,9.15,9.15,0,0,1-9.14,9.14m0-14.791a5.652,5.652,0,1,0,5.651,5.651,5.657,5.657,0,0,0-5.651-5.651" fill="#121212"/>
    <path id="パス_45" data-name="パス 45" d="M19.188,18.421a1.745,1.745,0,0,1-1.632-2.359c.077-.2.161-.412.25-.62a1.744,1.744,0,1,1,3.206,1.374c-.069.16-.133.32-.191.475a1.746,1.746,0,0,1-1.633,1.13" fill="#121212"/>
    <path id="パス_46" data-name="パス 46" d="M24.009,11.477a1.744,1.744,0,0,1-1.216-2.994c.277-.27.564-.537.852-.8a1.744,1.744,0,0,1,2.327,2.6c-.253.227-.5.461-.747.7a1.734,1.734,0,0,1-1.216.494m41.968-.15a1.738,1.738,0,0,1-1.253-.53c-.234-.242-.477-.481-.721-.711a1.744,1.744,0,0,1,2.39-2.54c.283.266.565.543.836.823a1.744,1.744,0,0,1-1.252,2.958m-34.607-5a1.744,1.744,0,0,1-.77-3.31c.346-.17.7-.335,1.05-.492A1.744,1.744,0,0,1,33.069,5.71c-.311.139-.624.285-.931.436a1.748,1.748,0,0,1-.768.179m27.28-.171a1.728,1.728,0,0,1-.737-.164c-.3-.142-.619-.281-.934-.413a1.744,1.744,0,1,1,1.344-3.218c.359.15.718.308,1.065.47a1.744,1.744,0,0,1-.738,3.325M50.021,3.663a1.872,1.872,0,0,1-.246-.017c-.338-.048-.686-.092-1.032-.13A1.744,1.744,0,0,1,49.126.049c.381.042.763.09,1.136.142a1.745,1.745,0,0,1-.241,3.472M39.94,3.634A1.744,1.744,0,0,1,39.678.166c.381-.059.767-.111,1.148-.155a1.744,1.744,0,0,1,.4,3.466c-.337.039-.68.085-1.019.137a1.843,1.843,0,0,1-.266.02" fill="#121212"/>
    <path id="パス_47" data-name="パス 47" d="M70.636,18.421a1.745,1.745,0,0,1-1.62-1.1q-.1-.245-.207-.495a1.744,1.744,0,1,1,3.2-1.393c.087.2.17.4.248.593a1.745,1.745,0,0,1-1.619,2.392" fill="#121212"/>
  </g>
</svg>
