<svg xmlns="http://www.w3.org/2000/svg" width="100.064" height="178.057" viewBox="0 0 100.064 178.057">
  <g id="strong_bg" transform="translate(-137.603 -1026.524)">
    <path id="パス_49" data-name="パス 49" d="M2173.97,1262.581a1,1,0,0,1-1-1v-28.794a1,1,0,0,1,2,0v28.794A1,1,0,0,1,2173.97,1262.581Z" transform="translate(-1986.47 -58)" fill="#121212"/>
    <path id="パス_50" data-name="パス 50" d="M2173.97,1262.581a1,1,0,0,1-1-1v-28.794a1,1,0,0,1,2,0v28.794A1,1,0,0,1,2173.97,1262.581Z" transform="translate(1469.454 -1027.787) rotate(90)" fill="#121212"/>
    <path id="パス_51" data-name="パス 51" d="M2173.97,1262.581a1,1,0,0,1-1-1v-28.794a1,1,0,0,1,2,0v28.794A1,1,0,0,1,2173.97,1262.581Z" transform="translate(1400.184 -1027.787) rotate(90)" fill="#121212"/>
    <path id="パス_52" data-name="パス 52" d="M2177.5,1235.66a1,1,0,0,1-1-1V1107.524a1,1,0,0,1,2,0V1234.66A1,1,0,0,1,2177.5,1235.66Z" transform="translate(-1990 -80)" fill="#5cc6c1"/>
  </g>
</svg>
