<svg id="strong_ico_02" xmlns="http://www.w3.org/2000/svg" xmlns:xlink="http://www.w3.org/1999/xlink" width="84.074" height="70" viewBox="0 0 84.074 70">
  <defs>
    <clipPath id="clip-path">
      <rect id="長方形_19" data-name="長方形 19" width="84.074" height="70" fill="none"/>
    </clipPath>
  </defs>
  <g id="グループ_6" data-name="グループ 6" clip-path="url(#clip-path)">
    <path id="パス_25" data-name="パス 25" d="M44.4,24.035l-2.909,6.691-2.909-6.691c-8.63,1.415-13.218,9.45-13.218,24.367H57.615c0-14.917-4.588-22.952-13.218-24.367" fill="#5cc6c1"/>
    <path id="パス_26" data-name="パス 26" d="M57.616,50.035H25.361A1.633,1.633,0,0,1,23.728,48.4c0-7.65,1.2-13.717,3.575-18.033a14.846,14.846,0,0,1,11.013-7.946,1.633,1.633,0,0,1,1.761.961l1.412,3.246L42.9,23.384a1.634,1.634,0,0,1,1.762-.961,14.846,14.846,0,0,1,11.013,7.946c2.372,4.316,3.574,10.383,3.574,18.033a1.633,1.633,0,0,1-1.633,1.633m-30.6-3.266h28.95c-.154-6.315-1.212-11.3-3.152-14.827a11.577,11.577,0,0,0-7.447-6.036l-2.378,5.471a1.634,1.634,0,0,1-3,0l-2.379-5.471a11.578,11.578,0,0,0-7.446,6.036c-1.94,3.53-3,8.512-3.152,14.827" fill="#121212"/>
    <path id="パス_27" data-name="パス 27" d="M49.878,10.023a8.389,8.389,0,1,1-8.39-8.39,8.39,8.39,0,0,1,8.39,8.39" fill="#5cc6c1"/>
    <path id="パス_28" data-name="パス 28" d="M41.488,20.045A10.023,10.023,0,1,1,51.511,10.022,10.034,10.034,0,0,1,41.488,20.045m0-16.779a6.756,6.756,0,1,0,6.756,6.756,6.763,6.763,0,0,0-6.756-6.756" fill="#121212"/>
    <path id="パス_29" data-name="パス 29" d="M25.749,15.229A9.349,9.349,0,1,1,16.4,5.881a9.347,9.347,0,0,1,9.348,9.348" fill="#ecf3f1"/>
    <path id="パス_30" data-name="パス 30" d="M16.4,26.21A10.981,10.981,0,1,1,27.383,15.228,10.994,10.994,0,0,1,16.4,26.21m0-18.7a7.715,7.715,0,1,0,7.715,7.715A7.724,7.724,0,0,0,16.4,7.513" fill="#121212"/>
    <path id="パス_31" data-name="パス 31" d="M16.66,30.153H11.266A6.236,6.236,0,0,0,5.48,34.062L2.315,41.928a9.441,9.441,0,0,0-.661,4.155l1.5,22.284H29.555V57.05l12.613,1.416a4.188,4.188,0,0,0,1.483-8.224l-13.44-3.36-.737-9.466a5.91,5.91,0,0,0-3.02-4.7l-.073-.04a20.017,20.017,0,0,0-9.721-2.519" fill="#ecf3f1"/>
    <path id="パス_32" data-name="パス 32" d="M29.555,70H3.15a1.633,1.633,0,0,1-1.63-1.523L.025,46.193A11.141,11.141,0,0,1,.8,41.318l3.165-7.865a7.833,7.833,0,0,1,7.3-4.933H16.66a21.7,21.7,0,0,1,10.514,2.725l.072.04A7.523,7.523,0,0,1,31.1,37.29l.646,8.293,12.3,3.075A5.822,5.822,0,0,1,48.2,56a5.822,5.822,0,0,1-6.218,4.089l-10.8-1.212v9.49A1.633,1.633,0,0,1,29.555,70M4.677,66.734H27.922V57.051a1.632,1.632,0,0,1,1.815-1.623L42.35,56.843a2.554,2.554,0,0,0,2.508-3.8,2.529,2.529,0,0,0-1.6-1.219l-13.439-3.36a1.633,1.633,0,0,1-1.232-1.458l-.738-9.465a4.265,4.265,0,0,0-2.185-3.4l-.072-.04a18.437,18.437,0,0,0-8.928-2.313H11.266a4.583,4.583,0,0,0-4.271,2.885L3.83,42.538a7.835,7.835,0,0,0-.546,3.436Z" fill="#121212"/>
    <path id="パス_33" data-name="パス 33" d="M58.289,15.229a9.348,9.348,0,1,0,9.348-9.348,9.347,9.347,0,0,0-9.348,9.348" fill="#ecf3f1"/>
    <path id="パス_34" data-name="パス 34" d="M67.638,26.21A10.981,10.981,0,1,1,78.62,15.228,10.994,10.994,0,0,1,67.638,26.21m0-18.7a7.715,7.715,0,1,0,7.715,7.715,7.724,7.724,0,0,0-7.715-7.715" fill="#121212"/>
    <path id="パス_35" data-name="パス 35" d="M65.715,30.153h7.077a6.209,6.209,0,0,1,5.76,3.891l3.4,8.464a6.689,6.689,0,0,1,.469,2.951L80.889,68.367h-26.4V57.05L41.871,58.466a4.188,4.188,0,0,1-1.483-8.224l13.44-3.36.647-8.307A8.07,8.07,0,0,1,58.6,32.148l.512-.284a13.594,13.594,0,0,1,6.6-1.711" fill="#ecf3f1"/>
    <path id="パス_36" data-name="パス 36" d="M80.889,70h-26.4a1.633,1.633,0,0,1-1.633-1.633v-9.49l-10.8,1.212a5.753,5.753,0,0,1-.652.037A5.824,5.824,0,0,1,35.835,56a5.822,5.822,0,0,1,4.157-7.341l12.3-3.075.556-7.135a9.68,9.68,0,0,1,4.961-7.727l.512-.285a15.27,15.27,0,0,1,7.395-1.916h7.077a7.806,7.806,0,0,1,7.275,4.915l3.4,8.464a8.365,8.365,0,0,1,.584,3.669L82.519,68.476A1.633,1.633,0,0,1,80.889,70M56.117,66.734H79.362L80.8,45.35a5.1,5.1,0,0,0-.355-2.232l-3.4-8.464a4.555,4.555,0,0,0-4.245-2.868H65.715a11.989,11.989,0,0,0-5.809,1.506l-.511.284A6.422,6.422,0,0,0,56.1,38.7l-.647,8.307a1.632,1.632,0,0,1-1.232,1.457l-13.44,3.36a2.555,2.555,0,0,0,.9,5.017L54.3,55.428a1.632,1.632,0,0,1,1.815,1.622ZM53.828,46.882h0Z" fill="#121212"/>
  </g>
</svg>
